<?xml version="1.0" encoding="UTF-8" standalone="no"?>
<!DOCTYPE svg PUBLIC "-//W3C//DTD SVG 1.1//EN"
 "http://www.w3.org/Graphics/SVG/1.1/DTD/svg11.dtd">
<!-- Generated by graphviz version 2.40.1 (20161225.0304)
 -->
<!-- Title: G Pages: 1 -->
<svg width="189pt" height="289pt"
 viewBox="0.00 0.00 189.36 289.00" xmlns="http://www.w3.org/2000/svg" xmlns:xlink="http://www.w3.org/1999/xlink">
<g id="graph0" class="graph" transform="scale(1 1) rotate(0) translate(4 285)">
<title>G</title>
<polygon fill="#ffffff" stroke="transparent" points="-4,4 -4,-285 185.357,-285 185.357,4 -4,4"/>
<!-- URL -->
<g id="node1" class="node">
<title>URL</title>
<ellipse fill="none" stroke="#000000" cx="93.8326" cy="-263" rx="27.589" ry="18"/>
<text text-anchor="middle" x="93.8326" y="-258.8" font-family="Times,serif" font-size="14.00" fill="#000000">URL</text>
</g>
<!-- Router -->
<g id="node2" class="node">
<title>Router</title>
<ellipse fill="none" stroke="#000000" cx="61.8326" cy="-190" rx="34.3527" ry="18"/>
<text text-anchor="middle" x="61.8326" y="-185.8" font-family="Times,serif" font-size="14.00" fill="#000000">Router</text>
</g>
<!-- URL&#45;&gt;Router -->
<g id="edge1" class="edge">
<title>URL&#45;&gt;Router</title>
<path fill="none" stroke="#000000" d="M86.0863,-245.3287C82.3797,-236.873 77.8592,-226.5607 73.7298,-217.1404"/>
<polygon fill="#000000" stroke="#000000" points="76.8389,-215.5151 69.6185,-207.7615 70.4278,-218.3254 76.8389,-215.5151"/>
</g>
<!-- App DB -->
<g id="node3" class="node">
<title>App DB</title>
<ellipse fill="none" stroke="#000000" cx="39.8326" cy="-104" rx="39.6659" ry="18"/>
<text text-anchor="middle" x="39.8326" y="-99.8" font-family="Times,serif" font-size="14.00" fill="#000000">App DB</text>
</g>
<!-- Router&#45;&gt;App DB -->
<g id="edge2" class="edge">
<title>Router&#45;&gt;App DB</title>
<path fill="none" stroke="#000000" d="M57.167,-171.7616C54.2011,-160.1678 50.3033,-144.931 46.9551,-131.8426"/>
<polygon fill="#000000" stroke="#000000" points="50.2853,-130.7378 44.4161,-121.9172 43.5037,-132.4727 50.2853,-130.7378"/>
</g>
<!-- Component -->
<g id="node4" class="node">
<title>Component</title>
<ellipse fill="none" stroke="#000000" cx="72.8326" cy="-18" rx="51.2501" ry="18"/>
<text text-anchor="middle" x="72.8326" y="-13.8" font-family="Times,serif" font-size="14.00" fill="#000000">Component</text>
</g>
<!-- App DB&#45;&gt;Component -->
<g id="edge3" class="edge">
<title>App DB&#45;&gt;Component</title>
<path fill="none" stroke="#000000" d="M27.4048,-86.8296C21.8582,-76.9394 17.646,-64.4394 22.984,-54 25.8863,-48.3239 30.1472,-43.337 34.9749,-39.0265"/>
<polygon fill="#000000" stroke="#000000" points="37.1997,-41.7298 42.914,-32.808 32.8832,-36.219 37.1997,-41.7298"/>
<text text-anchor="middle" x="67.7569" y="-56.8" font-family="Times,serif" font-size="14.00" fill="#000000">ui/current&#45;route</text>
</g>
<!-- Component&#45;&gt;URL -->
<g id="edge4" class="edge">
<title>Component&#45;&gt;URL</title>
<path fill="none" stroke="#000000" d="M95.9684,-34.3027C101.9448,-39.8067 107.6009,-46.4866 110.8326,-54 136.9563,-114.7341 117.4596,-194.4796 103.9226,-235.6973"/>
<polygon fill="#000000" stroke="#000000" points="100.5591,-234.7168 100.6408,-245.3113 107.1838,-236.9782 100.5591,-234.7168"/>
<text text-anchor="middle" x="152.5948" y="-142.8" font-family="Times,serif" font-size="14.00" fill="#000000">ui/redirect</text>
</g>
</g>
</svg>
